<?xml version="1.0" encoding="UTF-8"?>
<svg id="_图层_2" data-name="图层 2" xmlns="http://www.w3.org/2000/svg" viewBox="0 0 34 33.43">
  <defs>
    <style>
      .cls-1 {
        fill: #fff;
        fill-rule: evenodd;
      }
    </style>
  </defs>
  <g id="_图层_2-2" data-name="图层 2">
    <g id="logo">
      <path id="github" class="cls-1" d="M17.01,0C7.61,0,0,7.66,0,17.14c0,7.58,4.87,13.99,11.63,16.26,.85,.17,1.15-.37,1.15-.82,0-.4-.03-1.76-.03-3.18-4.73,1.02-5.72-2.04-5.72-2.04-.76-1.99-1.89-2.5-1.89-2.5-1.55-1.05,.11-1.05,.11-1.05,1.72,.11,2.62,1.76,2.62,1.76,1.52,2.61,3.97,1.87,4.96,1.42,.14-1.11,.59-1.87,1.07-2.3-3.77-.4-7.75-1.87-7.75-8.46,0-1.87,.68-3.41,1.75-4.6-.16-.4-.68-1.95,0-4.07,.1-.31,.41-.52,.73-.5,.69,.05,2.03,.37,4.11,1.79,1.39-.38,2.82-.57,4.25-.57,1.44,0,2.9,.2,4.25,.57,2.04-1.39,3.36-1.73,4.06-1.79,.34-.03,.68,.17,.78,.5,.68,2.12,.16,3.67,0,4.07,1.1,1.19,1.75,2.72,1.75,4.6,0,6.58-3.97,8.03-7.77,8.46,.62,.54,1.15,1.56,1.15,3.18,0,2.3-.03,4.14-.03,4.71,0,.45,.31,.99,1.15,.82,6.76-2.27,11.63-8.68,11.63-16.26,.03-9.48-7.61-17.14-16.99-17.14Z"/>
    </g>
  </g>
</svg>