<?xml version="1.0" encoding="UTF-8"?>
<svg id="_图层_2" data-name="图层 2" xmlns="http://www.w3.org/2000/svg" viewBox="0 0 42 42">
  <defs>
    <style>
      .cls-1 {
        fill: #fff;
      }
    </style>
  </defs>
  <g id="_图层_2-2" data-name="图层 2">
    <path id="Next" class="cls-1" d="M0,6v30c0,3.31,2.69,6,6,6h30c3.31,0,6-2.69,6-6V6C42,2.69,39.31,0,36,0H6C2.69,0,0,2.69,0,6Zm23.32,15l-5.82-5.82c-.59-.59-.59-1.54,0-2.12s1.54-.59,2.12,0l6.88,6.88c.59,.59,.59,1.54,0,2.12l-6.88,6.88c-.29,.29-.68,.44-1.06,.44s-.77-.15-1.06-.44c-.59-.59-.59-1.54,0-2.12l5.82-5.82Z"/>
  </g>
</svg>