<?xml version="1.0" encoding="UTF-8"?>
<svg id="_图层_2" data-name="图层 2" xmlns="http://www.w3.org/2000/svg" viewBox="0 0 42 42">
  <defs>
    <style>
      .cls-1 {
        fill: #fff;
      }
    </style>
  </defs>
  <g id="_图层_2-2" data-name="图层 2">
    <path id="Prev." class="cls-1" d="M36,0H6C2.69,0,0,2.69,0,6v30c0,3.31,2.69,6,6,6h30c3.31,0,6-2.69,6-6V6c0-3.31-2.69-6-6-6Zm-11.5,26.82c.59,.59,.59,1.54,0,2.12-.29,.29-.68,.44-1.06,.44s-.77-.15-1.06-.44l-6.88-6.88c-.59-.59-.59-1.54,0-2.12l6.88-6.88c.59-.59,1.54-.59,2.12,0s.59,1.54,0,2.12l-5.82,5.82,5.82,5.82Z"/>
  </g>
</svg>