<?xml version="1.0" encoding="UTF-8"?>
<svg id="_图层_2" data-name="图层 2" xmlns="http://www.w3.org/2000/svg" viewBox="0 0 20 26">
  <defs>
    <style>
      .cls-1 {
        fill: #fff;
        opacity: .5;
      }
    </style>
  </defs>
  <g id="_图层_2-2" data-name="图层 2">
    <path id="text" class="cls-1" d="M18,0H2C.9,0,0,.9,0,2V24c0,1.1,.9,2,2,2H18c1.1,0,2-.9,2-2V2c0-1.1-.9-2-2-2ZM3.95,9.5h6.1c.53,0,.95,.43,.95,.95v1.1c0,.53-.43,.95-.95,.95H3.95c-.53,0-.95-.43-.95-.95v-1.1c0-.53,.43-.95,.95-.95Zm-.95,12.05v-1.09c0-.53,.43-.95,.95-.95H14.05c.53,0,.95,.42,.95,.95v1.09c0,.53-.43,.95-.95,.95H3.95c-.53,0-.95-.42-.95-.95Zm0-5v-1.1c0-.53,.43-.95,.95-.95h12.1c.53,0,.95,.43,.95,.95v1.1c0,.53-.43,.95-.95,.95H3.95c-.53,0-.95-.43-.95-.95Z"/>
  </g>
</svg>