<?xml version="1.0" encoding="UTF-8"?>
<svg id="_图层_2" data-name="图层 2" xmlns="http://www.w3.org/2000/svg" viewBox="0 0 28.36 24">
  <defs>
    <style>
      .cls-1 {
        fill: #fff;
        opacity: .5;
      }
    </style>
  </defs>
  <g id="_图层_2-2" data-name="图层 2">
    <path id="video_demo" class="cls-1" d="M28.36,22.91c0,.6-.49,1.09-1.09,1.09H1.09c-.6,0-1.09-.49-1.09-1.09s.49-1.09,1.09-1.09H27.27c.6,0,1.09,.49,1.09,1.09m0-20.73v15.45c0,1.1-.9,2-2,2H2C.9,19.64,0,18.74,0,17.64V2C0,.9,.9,0,2,0H26.18c1.2,0,2.18,.98,2.18,2.18m-9.27,7.64c0-.36-.17-.69-.47-.89l-5.45-3.82c-.49-.35-1.17-.23-1.52,.27-.13,.18-.2,.4-.2,.63v7.64c0,.6,.49,1.09,1.09,1.09,.22,0,.44-.07,.63-.2l5.45-3.82c.29-.2,.46-.54,.47-.89"/>
  </g>
</svg>