<?xml version="1.0" encoding="UTF-8"?>
<svg id="_图层_2" data-name="图层 2" xmlns="http://www.w3.org/2000/svg" viewBox="0 0 34 23.8">
  <defs>
    <style>
      .cls-1 {
        fill: #fff;
      }
    </style>
  </defs>
  <g id="_图层_2-2" data-name="图层 2">
    <g id="logo">
      <path id="youtube" class="cls-1" d="M33.31,3.72c-.37-1.49-1.54-2.6-3.03-3.03-2.66-.69-13.28-.69-13.28-.69,0,0-10.63,0-13.28,.69-1.49,.37-2.6,1.54-3.03,3.03-.69,2.66-.69,8.18-.69,8.18,0,0,0,5.53,.69,8.18,.37,1.49,1.54,2.6,3.03,3.03,2.66,.69,13.28,.69,13.28,.69,0,0,10.63,0,13.28-.69,1.49-.37,2.6-1.54,3.03-3.03,.69-2.66,.69-8.18,.69-8.18,0,0,0-5.53-.69-8.18ZM14.14,15.51v-7.23c0-.66,.72-1.07,1.29-.74l6.25,3.61c.57,.33,.57,1.15,0,1.48l-6.25,3.61c-.57,.33-1.29-.08-1.29-.74Z"/>
    </g>
  </g>
</svg>